<?xml version="1.0" encoding="utf-8"?>
<!-- Generator: Adobe Illustrator 25.4.1, SVG Export Plug-In . SVG Version: 6.00 Build 0)  -->
<svg version="1.1" id="Layer_1" xmlns="http://www.w3.org/2000/svg" xmlns:xlink="http://www.w3.org/1999/xlink" x="0px" y="0px"
	 viewBox="0 0 282.7 118.9" style="enable-background:new 0 0 282.7 118.9;" xml:space="preserve">
<style type="text/css">
	.st0{fill:#3A4348;}
	.st1{fill:#4A7DBF;}
	.st2{opacity:0.5;}
</style>
<g>
	<g>
		<polygon class="st0" points="72.5,42.9 61.3,94.9 44.1,94.9 55.3,42.9 34.4,60.1 23.2,112.1 74.9,112.1 89.7,42.9 		"/>
		<polygon class="st1" points="118.4,17 104.8,0 103,8.4 11,8.4 0,60.1 34.4,60.1 51.6,60.1 55.3,42.9 20.9,42.9 24.5,25.7 
			99.3,25.7 97.6,33.7 		"/>
		<polygon class="st2" points="51.6,60.1 34.4,60.1 32.9,67.1 		"/>
	</g>
	<g>
		<polygon class="st0" points="158.7,77.7 165.4,77.7 166.9,70.8 160.1,70.8 		"/>
		<polygon class="st0" points="149.3,77.7 156,77.7 157.5,70.8 150.7,70.8 		"/>
		<polygon class="st0" points="171.7,77.7 178.5,77.7 179.9,70.8 173.2,70.8 		"/>
		<polygon class="st0" points="181.1,77.7 187.9,77.7 189.3,70.8 182.6,70.8 		"/>
		<polygon class="st0" points="273.3,26.5 266.6,26.5 265.1,33.4 271.9,33.4 		"/>
		<polygon class="st0" points="275.9,26.5 274.5,33.4 281.2,33.4 282.7,26.5 		"/>
		<path class="st0" d="M272,51.6c-0.6,3-1.4,5.1-2.4,6.4c-0.9,1.2-2.4,1.8-4.6,1.8l-12,0c-1.3,0-2.2-0.4-2.8-1.1
			c-0.9-1.1-1-3.2-0.4-6.2l1.1-9h-6l-0.9,8c-0.6,2.8-1.5,4.9-2.6,6.3c-1.1,1.3-2.6,2-4.6,2c-1.3,0-2.2-0.4-2.8-1.1
			c-0.9-1.1-1-3.2-0.4-6.2l1.1-9h-6l-0.9,8c-0.6,2.8-1.5,4.9-2.6,6.3c-1.1,1.3-2.6,2-4.6,2c-1.3,0-2.2-0.4-2.8-1.1
			c-0.9-1.1-1-3.2-0.4-6.2l1.1-9l-6,0l-0.9,8c-0.6,2.8-1.5,4.9-2.6,6.3c-1.1,1.3-2.6,2-4.6,2l-16.3,0c-1.3,0-2.2-0.4-2.8-1.1
			c-0.9-1.1-1-3.2-0.4-6.2l1.1-9l-6,0l-0.9,8c-0.6,2.8-1.5,4.9-2.6,6.3c-1.1,1.3-2.6,2-4.6,2c-1.3,0-2.2-0.4-2.8-1.1
			c-0.9-1.1-1-3.2-0.4-6.2l1.1-9l-6,0l-0.9,8c-0.6,2.8-1.5,4.9-2.6,6.3c-1.1,1.3-2.6,2-4.6,2l-9.1,0.1l2.7-16.4h-6.2l-3.7,21.2
			c-0.8,3.7-2,6.4-3.6,8c-1.6,1.6-4,2.5-7.3,2.7l-0.6,0l-1.3,6.3l1-0.1c4.5-0.3,8.4-1.6,11.4-4c3.1-2.4,5-5.7,5.9-9.6l0.4-1.9h10
			l0.6,0l0,0c3-0.3,5.6-1.5,7.7-3.6c0.5,1.1,1.3,1.9,2.4,2.5c1.4,0.8,3,1.2,4.8,1.2c3.5,0,6.5-1.2,9-3.7c0.5,1.1,1.3,1.9,2.4,2.5
			c1.4,0.8,3,1.2,4.8,1.2l16.3,0c3.5,0,6.5-1.2,9-3.7c0.5,1.1,1.3,1.9,2.4,2.5c1.4,0.8,3,1.2,4.8,1.2c3.5,0,6.5-1.2,9-3.7
			c0.5,1.1,1.3,1.9,2.4,2.5c1.4,0.8,3,1.2,4.8,1.2c3.5,0,6.5-1.2,9-3.7c0.5,1.1,1.3,1.9,2.4,2.5c1.4,0.8,3,1.2,4.8,1.2l12,0
			c4.1,0,7.2-1.3,9.4-3.8c2.1-2.4,3.7-6,4.7-10.6l2-13.2l-6.1,0L272,51.6z"/>
	</g>
	<g>
		<polygon class="st1" points="144.7,87.6 127.9,87.6 127.3,90.3 134.3,90.3 129.6,112.1 132.6,112.1 137.2,90.3 144.1,90.3 		"/>
		<path class="st1" d="M152.5,103.9c-0.8-1.1-2.2-1.7-4.4-2c-1.6-0.2-2.7-0.5-3.3-0.8c-0.6-0.3-0.8-0.8-0.6-1.5
			c0.2-0.8,0.7-1.5,1.5-2c0.8-0.5,1.8-0.7,2.9-0.7c1.5,0,2.8,0.5,4.1,1.4l0.2,0.2l2-2.2l-0.2-0.2c-1.4-1.2-3.3-1.8-5.7-1.8
			c-1.8,0-3.5,0.5-4.9,1.4c-1.4,1-2.3,2.3-2.7,3.9c-0.2,0.7-0.2,1.4,0,1.9c0.2,0.6,0.4,1,0.7,1.3c0.3,0.3,0.8,0.6,1.4,0.8
			c0.6,0.2,1.1,0.4,1.5,0.4c0.4,0.1,1,0.2,1.7,0.3c1.3,0.2,2.2,0.4,2.9,0.8c0.6,0.3,0.7,0.9,0.6,1.7c-0.2,1-0.7,1.7-1.6,2.1
			c-0.9,0.5-1.9,0.7-3,0.7c-2.1,0-3.8-0.6-5.1-1.9l-0.2-0.2l-2.1,2.1l0.2,0.2c1.6,1.6,3.8,2.3,6.6,2.3c2.1,0,3.8-0.5,5.3-1.5
			c1.5-1,2.4-2.3,2.7-3.8C153.2,105.7,153,104.7,152.5,103.9z"/>
		<path class="st1" d="M168.6,94.5l-7.5,13.4l-1.8-13.4h-3l2.7,17.2l-1.5,2.6c-0.7,1.3-1.6,2-2.6,2h-1.4l-0.5,2.5h1.5
			c2.2,0,3.9-1.1,5.1-3.3l12-21.1H168.6z"/>
		<path class="st1" d="M179.1,94.3c-0.9,0-1.8,0.1-2.7,0.4c-0.9,0.3-1.7,0.8-2.6,1.4c-0.9,0.7-1.7,1.6-2.4,2.8
			c-0.7,1.2-1.2,2.6-1.6,4.3c-0.4,1.7-0.5,3.2-0.3,4.4c0.2,1.3,0.6,2.2,1.3,2.8c0.7,0.6,1.4,1.1,2.2,1.3c0.8,0.3,1.7,0.4,2.7,0.4
			c2.1,0,4.1-0.7,5.8-2l0.2-0.2l-1.4-2l-0.3,0.2c-1.4,0.9-2.7,1.4-4.1,1.4c-1.7,0-2.8-0.5-3.3-1.6c-0.6-1-0.7-2.4-0.3-4l11.6,0
			l0.4-1.9c0.5-2.3,0.3-4.3-0.7-5.7C182.8,95.1,181.2,94.3,179.1,94.3z M173.1,101.8c0.4-1.5,1.1-2.6,2.1-3.5c1-0.9,2.1-1.4,3.5-1.4
			c1.4,0,2.3,0.4,2.8,1.2c0.5,0.8,0.7,2,0.4,3.6H173.1z"/>
		<path class="st1" d="M195.7,94.3c-0.9,0-1.8,0.1-2.7,0.4c-0.9,0.3-1.7,0.8-2.6,1.4c-0.9,0.7-1.7,1.6-2.4,2.8
			c-0.7,1.2-1.2,2.6-1.6,4.3c-0.4,1.7-0.5,3.2-0.3,4.4c0.2,1.3,0.6,2.2,1.3,2.8c0.7,0.6,1.4,1.1,2.2,1.3c0.8,0.3,1.7,0.4,2.7,0.4
			c2.1,0,4.1-0.7,5.8-2l0.2-0.2l-1.4-2l-0.3,0.2c-1.4,0.9-2.7,1.4-4.1,1.4c-1.7,0-2.8-0.5-3.3-1.6c-0.6-1-0.7-2.4-0.3-4l11.6,0
			l0.4-1.9c0.5-2.3,0.3-4.3-0.7-5.7C199.4,95.1,197.8,94.3,195.7,94.3z M189.7,101.8c0.4-1.5,1.1-2.6,2.1-3.5c1-0.9,2.1-1.4,3.5-1.4
			c1.4,0,2.3,0.4,2.8,1.2c0.5,0.8,0.7,2,0.4,3.6H189.7z"/>
		<path class="st1" d="M215.4,94.9c-0.6-0.4-1.5-0.6-2.6-0.6c-2,0-3.7,0.7-5.1,2.1l0.4-1.9h-2.8l-3.7,17.6l2.8,0l2.2-10.6
			c0.3-1.4,0.9-2.5,1.9-3.3c0.9-0.8,2-1.2,3.3-1.2c0.8,0,1.5,0.2,2,0.5l0.3,0.2l1.7-2.6L215.4,94.9z"/>
	</g>
</g>
</svg>
